# xmcd
#
# Track frame offsets: 
#        150
#        10192
#        20800
#        31955
#        42687
#        57100
#        68060
#        80155
#        89022
#        102520
#        112730
#        122885
#        135077
#        144585
#        153552
#        165237
#        178245
#        187267
#        196575
#        206972
#        215435
#        227505
#        238845
#        250162
#        261592
#
# Disc length: 3622 seconds
#
# Revision: 3
# Processed by: cddbd v1.5.2PL0 Copyright (c) Steve Scherf et al.
# Submitted via: ExactAudioCopyFreeDBPlugin 1.0
#
DISCID=6e0e2419
DTITLE=Claude King - More Than Climbing That Mountain, Wolverton Mount
DTITLE=ain, That Is - Disc 2
DYEAR=1900
DGENRE=Country
TTITLE0=The Comancheros
TTITLE1=Give Me Your Love And I'll Give You Mine
TTITLE2=Pistol Packin' Papa
TTITLE3=You're Breaking My Heart
TTITLE4=I'm Here To Get My Baby Out Of Jail
TTITLE5=Little Bitty Heart
TTITLE6=(Tell Me Darlin') Would You Care
TTITLE7=I Backed Out
TTITLE8=Wolverton Mountain
TTITLE9=This Land Of Yours And Mine
TTITLE10=Sheepskin Valley
TTITLE11=Shopping Center
TTITLE12=I've Got The World By The Tail
TTITLE13=Sheepskin Valley
TTITLE14=The Burning Of Atlanta
TTITLE15=Don't That Moon Look Lonesome
TTITLE16=I've Got The World By The Tail
TTITLE17=Culpepper Community
TTITLE18=Building A Bridge
TTITLE19=What Will I Do
TTITLE20=Scarlet O'Hara
TTITLE21=Hey Lucille
TTITLE22=Where The Red, Red Roses Grow
TTITLE23=A Lace Mantilla And A Rose Of Red
TTITLE24=That's What Makes The World Go Around
EXTD=
EXTT0=
EXTT1=
EXTT2=
EXTT3=
EXTT4=
EXTT5=
EXTT6=
EXTT7=
EXTT8=
EXTT9=
EXTT10=
EXTT11=
EXTT12=
EXTT13=
EXTT14=
EXTT15=
EXTT16=
EXTT17=
EXTT18=
EXTT19=
EXTT20=
EXTT21=
EXTT22=
EXTT23=
EXTT24=
PLAYORDER=
